# xmcd
#
# Track frame offsets:
#	150
#	15776
#	32918
#	49515
#	65953
#	79560
#	92714
#	109084
#	125026
#	142301
#	157258
#	168344
#	184698
#	203764
#	220765
#	239295
#	253465
#
# Disc length: 3527 seconds
#
# Revision: 2527333976
# Processed by: cddbd v1.5.2PL0 Copyright (c) Steve Scherf et al.
# Submitted via: EZCDAudioConverter 8.0.2.1
#
DISCID=f60dc511
DTITLE=Various Artist - The Winners 2009 [CD1)
DYEAR=2009
DGENRE=Country
TTITLE0=Catherine Britt - Little Wildflower
TTITLE1=Rob Black - We Have Kids
TTITLE2=The Sunny Cowgirls - Acting Stupid
TTITLE3=Kasey Chambers and Shane Nicholson - Rattlin' Bones
TTITLE4=The Robertson Brothers - The Language of Heaven
TTITLE5=John Williamson - Cydi
TTITLE6=Melinda Schneider - Be Yourself
TTITLE7=Michael Fix - Light at the End of the Tunnel
TTITLE8=Darren Coggan - Too Dark for the Light Horse (Too Light for the Clan)
TTITLE9=Jasmine Rae - Country Singer
TTITLE10=Matt Manning and Stuie French - Prissy
TTITLE11=The Slim Dusty Family feat. David Kirkpatrick - Old Purple
TTITLE12=Davidson Brothers - Long Distance Love Affair
TTITLE13=Adam Harvey - I'm Doin' Alright
TTITLE14=Travis Collins feat Felicity Urquhart - Just Enough Rope
TTITLE15=John Stephan - Mascara
TTITLE16=The Sunny Cowgirls with Adam Brand - Someday
EXTD=
EXTT0=
EXTT1=
EXTT2=
EXTT3=
EXTT4=
EXTT5=
EXTT6=
EXTT7=
EXTT8=
EXTT9=
EXTT10=
EXTT11=
EXTT12=
EXTT13=
EXTT14=
EXTT15=
EXTT16=
PLAYORDER=
